<!-- <svg xmlns="http://www.w3.org/2000/svg" width="96.008" height="95.427" viewBox="0 0 106.008 105.427">
  <g id="Group_11" data-name="Group 11" transform="translate(-746.294 -267.5)">
    <path id="Path_1" data-name="Path 1" d="M23.557,17.942,78.779,0,56.606,54.647,0,70.933Z" transform="translate(793.757 267.5) rotate(42)" fill="#404040"/>
    <rect id="Rectangle_5" data-name="Rectangle 5" width="7.364" height="49.096" transform="translate(835.244 319.238)" fill="#404040"/>
    <path id="Path_2" data-name="Path 2" d="M2597.927,393.277s6.049,25.3,6.966,25.846,30.731,10.991,30.731,10.991l24.078-10.991,6.049-25.846L2633.608,410.5Z" transform="translate(-1833.668 -57.186)" fill="#3ea2f9"/>
  </g>
</svg> -->
<svg xmlns="http://www.w3.org/2000/svg" xmlns:xlink="http://www.w3.org/1999/xlink" width="106.008" height="105.427" viewBox="0 0 106.008 105.427">
  <defs>
    <linearGradient id="linear-gradient" x1="-5.957" y1="-0.16" x2="0.5" y2="1" gradientUnits="objectBoundingBox">
      <stop offset="0" stop-color="#404040"/>
      <stop offset="0" stop-color="#2d2d2d"/>
      <stop offset="0.683" stop-color="#363c56"/>
      <stop offset="1" stop-color="#363c56"/>
    </linearGradient>
  </defs>
  <g id="Group_15" data-name="Group 15" transform="translate(-1574.996 -756)">
    <path id="Path_1" data-name="Path 1" d="M23.557,17.942,78.779,0,56.606,54.647,0,70.933Z" transform="translate(1622.46 756) rotate(42)" fill="url(#linear-gradient)"/>
    <rect id="Rectangle_5" data-name="Rectangle 5" width="7.364" height="49.096" transform="translate(1663.947 807.738)" fill="url(#linear-gradient)"/>
    <path id="Path_2" data-name="Path 2" d="M2597.927,393.277s6.049,25.3,6.966,25.846,30.731,10.991,30.731,10.991l24.078-10.991,6.049-25.846L2633.608,410.5Z" transform="translate(-1004.966 431.314)" fill="#3ea2f9"/>
  </g>
</svg>

